<svg width="144" height="144" viewBox="0 0 144 144" version="1.1" xmlns="http://www.w3.org/2000/svg"><g id="CV-ketel" stroke="#222221" stroke-width="2" fill="none" fill-rule="evenodd"><path d="M74.88 13.452V29H51.51V13.452C51.51 10.432 59.3 10 63.2 10c3.9 0 11.68.831 11.68 3.452z" id="Path"/><path d="M88.93 114.81v11.46h-7.79v-11.46h7.79z" id="Path" fill-rule="nonzero" transform="rotate(180 85.035 120.54)"/><path d="M67.79 115v6H60v-6h7.79z" id="Path-Copy" fill-rule="nonzero" transform="rotate(180 63.895 118)"/><path id="Rectangle" stroke-linejoin="round" fill-rule="nonzero" d="M47.61 29.58h62.99v85.06H47.61z"/><path id="Path" stroke-linejoin="round" fill-rule="nonzero" d="M47.61 114.64l-13.63-5.67V35.25l13.63-5.67z"/><path id="Rectangle" fill-rule="nonzero" d="M59.95 86.72h38.31v16.23H59.95zm18.77 39.55h12.81v7.79H78.72zm-22.03-5.19H69.5v7.79H56.69z"/></g></svg>