<svg width="124" height="142" viewBox="0 0 124 142" version="1.1" xmlns="http://www.w3.org/2000/svg"><defs><radialGradient cx="50%" cy="80.147%" fx="50%" fy="80.147%" r="54.764%" gradientTransform="matrix(-1 0 0 -.86601 1 1.496)" id="radialGradient-1"><stop stop-color="#F5B304" offset="0%"/><stop stop-color="#FF7900" offset="99.908%"/></radialGradient></defs><g fill-rule="nonzero" id="KTI-Duurzaam-icoon" stroke="none" stroke-width="1" fill="none"><path id="Path" fill="#FFF" d="M3.65 37.25v67.23l58.22 33.61 58.22-33.61V37.25L61.87 3.64z"/><path id="Path" fill="url(#radialGradient-1)" d="M9.9 40.87v60l51.97 30 51.96-30v-60L61.87 10.86z"/><circle id="Oval" stroke="#FFF" stroke-width="4.19" fill="#4CB134" cx="61.87" cy="67.81" r="37.84"/><path d="M83.18 124.06a11.66 11.66 0 01-11.61-10.66L70.49 95a9.78 9.78 0 014.86-9.32l2.74-1.58a12.26 12.26 0 006.14-10.63v-3.89A14.52 14.52 0 0077 57l-15.13-8.7L46.75 57a14.52 14.52 0 00-7.25 12.58v3.93a12.26 12.26 0 006.14 10.63l2.74 1.58A9.78 9.78 0 0153.24 95l-1.08 18.4a11.66 11.66 0 01-11.61 10.66l21.32 11.42 21.31-11.42z" id="Path" fill="#FFF"/><path id="Path" fill="#4CB134" d="M71.71 71.87l1.17-18.97-11.01-5.68-11.02 5.68 1.17 18.97 9.85 5.68z"/><path d="M61.87 141.73L.49 106.3V35.43L61.87 0l61.37 35.43v70.87l-61.37 35.43zm-56-38.51l56 32.34 56-32.34v-64.7l-56-32.35-56 32.35v64.7z" id="Shape" fill="#414953"/></g></svg>