<svg width="144" height="144" viewBox="0 0 144 144" version="1.1" xmlns="http://www.w3.org/2000/svg"><g id="Ventilatiesysteem" stroke="none" stroke-width="1" fill="none" fill-rule="evenodd" stroke-linejoin="round"><g id="Group-23" transform="translate(25 19)" stroke="#222210" stroke-width="2"><path id="Stroke-1" d="M28.695 78.697v26.895L0 94.857V72.853z"/><path d="M28.695 78.697s6.444-.976 10.835-1.951c4.391-.976 9.756-4.147 9.756-12.684l20.49-3.902s.731 16.83-3.66 25.61c-4.39 8.78-11.707 15.123-21.464 17.319-9.757 2.195-15.957 2.503-15.957 2.503V78.697z" id="Stroke-3"/><path d="M0 72.852s14.155-.23 18.488-.54c4.333-.31 10.213-3.405 10.213-11.143l20.585 2.892" id="Stroke-5"/><path d="M69.775 47.664v5.18l-20.489 3.902-20.585-2.892s-.309-21.356-.309-30.331C28.392 13.309 34.272 0 43.557 0s27.546 2.786 27.546 2.786" id="Stroke-7"/><path d="M71.103 47.664c-8.33 0-15.084-10.046-15.084-22.439S62.773 2.786 71.103 2.786c8.332 0 15.086 10.046 15.086 22.439s-6.754 22.439-15.085 22.439" id="Stroke-9"/><path d="M69.556 47.664s-6.81-.929-10.523-1.857c-3.714-.929-11.452-3.714-11.452-20.118" id="Stroke-11" stroke-linecap="round"/><path id="Stroke-13" d="M30.884 54.438v6.838"/><path id="Stroke-15" d="M68.082 53.69v6.218"/><path id="Stroke-17" stroke-linecap="round" d="M74.156 10.783l19.993 3.172"/><path id="Stroke-19" stroke-linecap="round" d="M61.709 18.412l29.001 4.549"/><path id="Stroke-21" stroke-linecap="round" d="M66.551 37.881l23.277 3.769"/></g></g></svg>