<?xml version="1.0" encoding="UTF-8"?>
<svg width="144px" height="144px" viewBox="0 0 144 144" version="1.1" xmlns="http://www.w3.org/2000/svg" xmlns:xlink="http://www.w3.org/1999/xlink">
    <!-- Generator: Sketch 62 (91390) - https://sketch.com -->
    <title>Ventilatiesysteem</title>
    <desc>Created with Sketch.</desc>
    <g id="Ventilatiesysteem" stroke="none" stroke-width="1" fill="none" fill-rule="evenodd" stroke-linejoin="round">
        <g id="Group-23" transform="translate(25.000000, 19.000000)" stroke="#222210" stroke-width="2">
            <polygon id="Stroke-1" points="28.6953 78.6967 28.6953 105.5917 0.0003 94.8567 0.0003 72.8527"></polygon>
            <path d="M28.6953,78.6967 C28.6953,78.6967 35.1393,77.7207 39.5303,76.7457 C43.9213,75.7697 49.2863,72.5987 49.2863,64.0617 L69.7753,60.1597 C69.7753,60.1597 70.5073,76.9897 66.1163,85.7707 C61.7263,94.5507 54.4093,100.8927 44.6523,103.0887 C34.8953,105.2837 28.6953,105.5917 28.6953,105.5917 L28.6953,78.6967 Z" id="Stroke-3"></path>
            <path d="M2.84217094e-14,72.8524 C2.84217094e-14,72.8524 14.155,72.6214 18.488,72.3114 C22.821,72.0024 28.701,68.9074 28.701,61.1694 L49.286,64.0614" id="Stroke-5"></path>
            <path d="M69.7753,47.664 L69.7753,52.844 L49.2863,56.746 L28.7013,53.854 C28.7013,53.854 28.3923,32.498 28.3923,23.523 C28.3923,13.309 34.2723,4.26325641e-14 43.5573,4.26325641e-14 C52.8423,4.26325641e-14 71.1033,2.786 71.1033,2.786" id="Stroke-7"></path>
            <path d="M71.1035,47.664 C62.7725,47.664 56.0185,37.618 56.0185,25.225 C56.0185,12.832 62.7725,2.786 71.1035,2.786 C79.4345,2.786 86.1885,12.832 86.1885,25.225 C86.1885,37.618 79.4345,47.664 71.1035,47.664" id="Stroke-9"></path>
            <path d="M69.5556,47.664 C69.5556,47.664 62.7466,46.735 59.0326,45.807 C55.3186,44.878 47.5806,42.093 47.5806,25.689" id="Stroke-11" stroke-linecap="round"></path>
            <line x1="30.8837" y1="54.4379" x2="30.8837" y2="61.2759" id="Stroke-13"></line>
            <line x1="68.082" y1="53.6898" x2="68.082" y2="59.9078" id="Stroke-15"></line>
            <line x1="74.1562" y1="10.7831" x2="94.1492" y2="13.9551" id="Stroke-17" stroke-linecap="round"></line>
            <line x1="61.7089" y1="18.412" x2="90.7099" y2="22.961" id="Stroke-19" stroke-linecap="round"></line>
            <line x1="66.5507" y1="37.8808" x2="89.8277" y2="41.6498" id="Stroke-21" stroke-linecap="round"></line>
        </g>
    </g>
</svg>