<?xml version="1.0" encoding="UTF-8"?>
<svg width="144px" height="144px" viewBox="0 0 144 144" version="1.1" xmlns="http://www.w3.org/2000/svg" xmlns:xlink="http://www.w3.org/1999/xlink">
    <!-- Generator: Sketch 62 (91390) - https://sketch.com -->
    <title>Vloerverwarming</title>
    <desc>Created with Sketch.</desc>
    <g id="Vloerverwarming" stroke="none" stroke-width="1" fill="none" fill-rule="evenodd" stroke-linejoin="round">
        <g id="Iconen-KTI_Vloerverwarming" transform="translate(9.000000, 26.000000)" stroke="#222221" stroke-width="2">
            <polygon id="Path" points="81.37 23.43 66.18 23.43 111.4 81.96 0.53 81.96 0.53 90.61 126.59 90.61 126.59 81.96"></polygon>
            <path d="M89.49,69.71 L15.75,69.71 C9.43,69.71 7.57,67.71 7.57,65.1 C7.57,62.79 9.1,60.49 15.75,60.49 L65.44,60.49 C71.44,60.49 74.05,58.49 74.05,54.62 C74.05,51.16 69.79,50.01 65.79,50.01 L23.79,50.01 C18.45,50.01 16.42,48.13 16.42,45.6 C16.42,43.39 17.58,41.2 23.79,41.2 L58.19,41.2 C62.36,41.2 65.11,38.53 65.11,35.74 C65.11,32.95 62.3,30.74 57.78,30.74 L35.52,30.74 C28.4,30.74 27.74,25.08 27.74,19.42" id="Path" stroke-linecap="round"></path>
            <rect id="Rectangle" fill-rule="nonzero" x="18.13" y="0.84" width="19.21" height="17.92"></rect>
        </g>
    </g>
</svg>