<svg width="144" height="144" viewBox="0 0 144 144" version="1.1" xmlns="http://www.w3.org/2000/svg"><g id="Vloerverwarming" stroke="none" stroke-width="1" fill="none" fill-rule="evenodd" stroke-linejoin="round"><g id="Iconen-KTI_Vloerverwarming" transform="translate(9 26)" stroke="#222221" stroke-width="2"><path id="Path" d="M81.37 23.43H66.18l45.22 58.53H.53v8.65h126.06v-8.65z"/><path d="M89.49 69.71H15.75c-6.32 0-8.18-2-8.18-4.61 0-2.31 1.53-4.61 8.18-4.61h49.69c6 0 8.61-2 8.61-5.87 0-3.46-4.26-4.61-8.26-4.61h-42c-5.34 0-7.37-1.88-7.37-4.41 0-2.21 1.16-4.4 7.37-4.4h34.4c4.17 0 6.92-2.67 6.92-5.46s-2.81-5-7.33-5H35.52c-7.12 0-7.78-5.66-7.78-11.32" id="Path" stroke-linecap="round"/><path id="Rectangle" fill-rule="nonzero" d="M18.13.84h19.21v17.92H18.13z"/></g></g></svg>