<svg xmlns="http://www.w3.org/2000/svg" viewBox="0 0 85.04 85.04"><path d="M36.28 58.84l5.56 9.31 6.44-9.31h14.5c5.33 0 13.31-6 13.31-13.3 0-11.64-10-13.3-10-13.3a14.29 14.29 0 00-6.65-14.63c-8.94-5.6-16 1.33-16 1.33a13.91 13.91 0 00-16 0c-6 4-6 12-6 12s-13.12 1.92-13.12 14c0 10 7.8 14 14.45 14z" fill="none" stroke="#000" stroke-linejoin="round" stroke-width="1.5"/><path d="M32.63 48.56c-5.38 0-6.25-3.56-6.25-8.05s.85-8 6.37-8h3.93v1.74h-3.22c-4 0-4.85 1.93-4.85 6.3s.78 6.3 4.74 6.3h3.59v1.75zm18.98-8.05c0 6.05-1.2 8.24-6.65 8.24s-6.64-2.19-6.64-8.24 1.19-8.23 6.64-8.23 6.65 2.19 6.65 8.23zM45 47c4 0 4.42-1.73 4.42-6.49S48.92 34 45 34s-4.41 1.75-4.41 6.48S41 47 45 47zm8.94 2.05a2 2 0 01.68-1.54l2.38-2.3a1.19 1.19 0 00.51-.94c0-.52-.28-.61-1-.61h-2.36v-1.9h3.66c1.57 0 2 .72 2 2.09a3.11 3.11 0 01-1.18 2.69L57 48.19c-.07.06-.11.1-.11.17s0 0 .09 0h2.79v1.9H55c-.89.04-1.06-.59-1.06-1.21z"/><path fill="none" stroke="#000" stroke-linecap="round" stroke-linejoin="round" stroke-width="1.5" d="M21.11 42.21h-5.32"/></svg>