<svg xmlns="http://www.w3.org/2000/svg" viewBox="0 0 85.04 85.04"><circle cx="42.26" cy="41.13" r="28.35" fill="none" stroke="#000" stroke-miterlimit="10" stroke-width="1.5"/><path d="M33.39,20.13a22.56,22.56,0,0,1,8.87-1.8,22.8,22.8,0,1,1-3.44,45.34" fill="none" stroke="#000" stroke-miterlimit="10" stroke-width="1.5"/><polygon points="43.47 60.5 26.83 57.91 39.95 68.47 43.47 60.5"/><polyline points="33.02 48.5 42.26 41.13 42.26 21.89" fill="none" stroke="#000" stroke-linecap="round" stroke-linejoin="round" stroke-width="1.5" fill-rule="evenodd"/><circle cx="42.26" cy="41.13" r="3.52"/><path d="M30.11,26.56c2.91,0,4,.92,4,4.16,0,1.62-.48,2.91-2,3.23V34c2,.28,2.31,1.85,2.31,3.79,0,2.59-1.06,3.82-3.75,3.82H28.36c-2.7,0-3.73-1.23-3.73-3.82,0-1.94.32-3.45,2.31-3.79V34c-1.47-.28-2-1.61-2-3.23,0-3.24,1.12-4.16,4-4.16ZM30.34,40c1.68,0,2-.9,2-2.52,0-1.83-.5-2.65-2.22-2.65H28.94c-1.72,0-2.22.82-2.22,2.65,0,1.62.35,2.52,2,2.52Zm-.26-6.81c1.58,0,2-.8,2-2.42,0-1.83-.35-2.58-2.2-2.58h-.61c-1.85,0-2.2.75-2.2,2.58,0,1.62.31,2.42,2,2.42Z"/></svg>