<svg xmlns="http://www.w3.org/2000/svg" viewBox="0 0 85.04 85.04"><circle cx="41.48" cy="41.29" r="16.29" fill="none" stroke="#000" stroke-miterlimit="10" stroke-width="1.5"/><path d="M53.07 41.29A11.73 11.73 0 0141.34 53c-15.55-.62-15.55-22.84 0-23.46a11.73 11.73 0 0111.73 11.75z" fill="none" stroke="#000" stroke-miterlimit="10" stroke-width="1.08" stroke-dasharray="3.07 3.07"/><path d="M29.08 23.58l-7.45-7.44a3 3 0 00-4.24 0l-.46.46a3 3 0 000 4.24l7.44 7.44a22.1 22.1 0 014.71-4.7zM59.8 54.31A22 22 0 0155.1 59l7.44 7.44a3 3 0 004.24 0l.46-.46a3 3 0 000-4.24zm0-26.03l7.44-7.44a3 3 0 000-4.24l-.46-.46a3 3 0 00-4.24 0l-7.44 7.44a22 22 0 014.7 4.7zM24.37 54.31l-7.44 7.44a3 3 0 000 4.24l.46.46a3 3 0 004.24 0L29.08 59a22.1 22.1 0 01-4.71-4.69z" fill="none" stroke="#000" stroke-miterlimit="10" stroke-width="1.5"/></svg>