<svg width="144" height="144" viewBox="0 0 144 144" version="1.1" xmlns="http://www.w3.org/2000/svg"><g id="Warmtepomp" stroke="none" stroke-width="1" fill="none" fill-rule="evenodd"><g id="Iconen-KTI_Warmtepomp" transform="translate(22 28)" fill-rule="nonzero" stroke="#222221" stroke-linejoin="round"><path id="Path" stroke-width="2" d="M42.84 87.998v-6.075l12.82-2.925v5.304z"/><path id="Path-Copy" stroke-width="2" d="M77 78.17v-3.944L89.82 71v3.015z"/><path id="Path" stroke-width="1.95" d="M100.2 67.95L27.9 85.33V.27h72.3z"/><path id="Path" stroke-width="2" d="M27.9 85.33L.22 75.93V.27H27.9z"/><ellipse id="Oval" stroke-width="2" cx="55.42" cy="34.7" rx="19.29" ry="24.61"/><ellipse id="Oval" stroke-width="2.03" cx="55.41" cy="34.82" rx="8.35" ry="10.65"/><path id="Path" stroke-width="2" fill="#FFF" d="M60.07 26.72l8.57-10.16M61.4 42.01l7.98 9.31m-17.6-6.67l-5.67 11.33m.96-21.31l-10.94.03m16.39-10.08L46.41 12.4"/></g><path id="Path-4" stroke="#000" stroke-width="2" stroke-linecap="round" d="M65 116l-9-4"/><path id="Path-4-Copy" stroke="#000" stroke-width="2" stroke-linecap="round" d="M98.425 106.17l-6.07-2.17"/></g></svg>