<svg xmlns="http://www.w3.org/2000/svg" xmlns:xlink="http://www.w3.org/1999/xlink" viewBox="0 0 85.04 85.04"><defs><radialGradient id="a" cx="49.15" cy="-182.35" r="9.15" gradientTransform="translate(0.79 177.59) scale(0.88 0.65)" gradientUnits="userSpaceOnUse"><stop offset="0" stop-color="#f9a60d"/><stop offset="0.7" stop-color="#f75110"/></radialGradient></defs><path d="M20.26,28H32.15V25.54H20.26c-.69,0-4.4.56-4.4,1.24h0C15.86,27.47,19.57,28,20.26,28Z" fill="#aaa8a5"/><path d="M27.16,32.53h5.57V21.83s-3.79,0-5.57,0c-2.56,0-4.65,2.42-4.65,5.37h0c0,2.95,2.09,5.37,4.65,5.37" fill="#aaa8a5"/><path d="M61.14,35.41H33.28c-4.57,0-6.75-3.74-6.75-8.3h0c0-4.57,2.18-8.31,6.75-8.31H61.14a2,2,0,0,1,2,2V33.41A2,2,0,0,1,61.14,35.41Z" fill="#262b31"/><polygon points="60.52 32.77 50.27 32.03 40.75 57.58 49.78 57.58 60.52 32.77" fill="#262b31"/><rect x="33.07" y="59.76" width="21.52" height="6.96" rx="3" fill="#262b31"/><path d="M36.07,55.89H51.59a3,3,0,0,1,3,3v2.3a0,0,0,0,1,0,0H33.07a0,0,0,0,1,0,0v-2.3A3,3,0,0,1,36.07,55.89Z" fill="url(#a)"/><rect x="54.9" y="21.54" width="6.04" height="1.55" fill="#aaa8a5"/><rect x="54.9" y="25.44" width="6.04" height="1.55" fill="#aaa8a5"/><rect x="54.9" y="29.34" width="6.04" height="1.55" fill="#aaa8a5"/></svg>