<svg xmlns="http://www.w3.org/2000/svg" viewBox="0 0 85.04 85.04"><defs><radialGradient id="a" cx="49.15" cy="-182.35" r="9.15" gradientTransform="matrix(.88 0 0 .65 .79 177.59)" gradientUnits="userSpaceOnUse"><stop offset="0" stop-color="#f9a60d"/><stop offset=".7" stop-color="#f75110"/></radialGradient></defs><path d="M20.26 28h11.89v-2.46H20.26c-.69 0-4.4.56-4.4 1.24 0 .69 3.71 1.22 4.4 1.22z" fill="#aaa8a5"/><path d="M27.16 32.53h5.57v-10.7h-5.57c-2.56 0-4.65 2.42-4.65 5.37s2.09 5.37 4.65 5.37" fill="#aaa8a5"/><path d="M61.14 35.41H33.28c-4.57 0-6.75-3.74-6.75-8.3 0-4.57 2.18-8.31 6.75-8.31h27.86a2 2 0 012 2v12.61a2 2 0 01-2 2z" fill="#262b31"/><path fill="#262b31" d="M60.52 32.77l-10.25-.74-9.52 25.55h9.03l10.74-24.81z"/><rect x="33.07" y="59.76" width="21.52" height="6.96" rx="3" fill="#262b31"/><path d="M36.07 55.89h15.52a3 3 0 013 3v2.3H33.07v-2.3a3 3 0 013-3z" fill="url(#a)"/><path fill="#aaa8a5" d="M54.9 21.54h6.04v1.55H54.9zm0 3.9h6.04v1.55H54.9zm0 3.9h6.04v1.55H54.9z"/></svg>