<svg xmlns="http://www.w3.org/2000/svg" xmlns:xlink="http://www.w3.org/1999/xlink" viewBox="0 0 85.04 85.04"><defs><radialGradient id="a" cx="27.83" cy="27.14" r="1.76" gradientUnits="userSpaceOnUse"><stop offset="0" stop-color="#f9a60d"/><stop offset=".7" stop-color="#f75110"/></radialGradient><radialGradient id="b" cx="27.83" cy="32.55" r="1.76" xlink:href="#a"/><radialGradient id="c" cx="50.15" cy="38.75" r="5.93" xlink:href="#a"/></defs><rect x="17.08" y="18.58" width="49.83" height="31.24" rx="3" fill="#262b31"/><path d="M70.94 66.72H13c-1.23 0-2.23-.47-2.23-1l6.27-14.82c0-.57.8-1 1.78-1h46.3c1 0 1.78.46 1.78 1l6.27 14.82c0 .53-1 1-2.23 1z" fill="#aaa8a5"/><path d="M60.82 59.9H23.16c-.8 0-1.45-.2-1.45-.45l2.55-7.36c0-.26.57-.47 1.27-.47h32.92c.7 0 1.27.21 1.27.47l2.56 7.36c0 .25-.66.45-1.46.45z" fill="#262b31"/><path fill="#fff" d="M20.49 22.52H63.5V45.9H20.49z"/><path fill="#262b31" d="M27.83 26.41h9.79v1.56h-9.79zm0 5.55h9.79v1.56h-9.79z"/><circle cx="27.83" cy="27.14" r="1.76" fill="url(#a)"/><circle cx="27.83" cy="32.55" r="1.76" fill="url(#b)"/><path fill="url(#c)" d="M42.24 35.98h15.82v5.54H42.24z"/></svg>