<svg xmlns="http://www.w3.org/2000/svg" viewBox="0 0 85.04 85.04"><defs><radialGradient id="b" cx="29.24" cy="54.78" r="17.07" gradientUnits="userSpaceOnUse"><stop offset="0" stop-color="#f9a60d"/><stop offset=".7" stop-color="#f75110"/></radialGradient><clipPath id="a"><path d="M48.07 67.47a3.2 3.2 0 001.25-2.23V44.39a2.61 2.61 0 00-2-2.43l-27.23-5.21a5.06 5.06 0 00-2.78.65c-2.26 1-3.89 1.85-5.37 2.4s-2.7 1.07-2.7 2.3 27.61 29.2 27.61 29.2a5.7 5.7 0 002.22 1 6.44 6.44 0 003.06-.88c1.67-.86 5.94-3.95 5.94-3.95z" fill="none"/></clipPath></defs><path fill="#91908e" d="M39.1 14.55h6.64V62.9H39.1z"/><path fill="#c4c3c0" d="M45.5 14.55h27.28V62.9H45.5z"/><text transform="translate(51.07 28.86)" font-size="11.49" fill="#262b31" font-family="MagistralCond-Medium, Magistral Cond" font-weight="500" letter-spacing=".03em">C<tspan x="6.54" y="0" letter-spacing=".02em">V</tspan></text><path d="M54.45 54.42h7.67a3 3 0 013 3v5.91H51.45v-5.91a3 3 0 013-3z" fill="#fff"/><path d="M48.07 67.47a3.2 3.2 0 001.25-2.23V44.39a2.61 2.61 0 00-2-2.43l-27.23-5.21a5.06 5.06 0 00-2.78.65c-2.26 1-3.89 1.85-5.37 2.4s-2.7 1.07-2.7 2.3 27.61 29.2 27.61 29.2a7.68 7.68 0 002.5 1 5.61 5.61 0 002.78-.87c1.67-.87 5.94-3.96 5.94-3.96z" fill="#262b31"/><path d="M39.07 72.27L11.28 66.9a2.61 2.61 0 01-2-2.44V42.1a1.64 1.64 0 012-1.65l27.79 5.37a2.59 2.59 0 012 2.43v22.37a1.64 1.64 0 01-2 1.65z" fill="#91908e"/><path d="M27.58 49.47a4.64 4.64 0 00-5-2.11l3.29 5.12-4.35 3.92-3.29-5.12a6.81 6.81 0 00.38 6.22 4.61 4.61 0 004.86 2.13l4 6.26L32 61.83l-4-6.26a6.77 6.77 0 00-.42-6.1z" fill="#262b31"/><g clip-path="url(#a)"><path d="M13 38.05s26.63 5 28.6 5.44c1.25.29 3.83.79 3.83 4.15v18.18c0 1.74.2 4.46-1.43 5.69" fill="none" stroke-linecap="round" stroke-miterlimit="10" stroke-width="1.19" stroke="url(#b)"/></g><path d="M37.7 41.2a2 2 0 01-.24 1.55 3.14 3.14 0 01-2.62 1.08c-1-.12-9.9-1.79-10.67-2a2.58 2.58 0 01-1.55-2 10.77 10.77 0 010-1.49z" fill="#262b31"/><path fill="none" stroke="#b3b3b3" stroke-linecap="round" stroke-linejoin="round" stroke-width="2.38" d="M24.71 39.8v-5.59l10.87 1.76v5.78"/></svg>