<svg xmlns="http://www.w3.org/2000/svg" xmlns:xlink="http://www.w3.org/1999/xlink" viewBox="0 0 85.04 85.04"><defs><clipPath id="a"><path d="M48.07,67.47a3.2,3.2,0,0,0,1.25-2.23V44.39a2.61,2.61,0,0,0-2-2.43L20.09,36.75a5.06,5.06,0,0,0-2.78.65c-2.26,1-3.89,1.85-5.37,2.4s-2.7,1.07-2.7,2.3S36.85,71.3,36.85,71.3a5.7,5.7,0,0,0,2.22,1,6.44,6.44,0,0,0,3.06-.88C43.8,70.56,48.07,67.47,48.07,67.47Z" fill="none"/></clipPath><radialGradient id="b" cx="29.24" cy="54.78" r="17.07" gradientUnits="userSpaceOnUse"><stop offset="0" stop-color="#f9a60d"/><stop offset="0.7" stop-color="#f75110"/></radialGradient></defs><rect x="39.1" y="14.55" width="6.64" height="48.35" fill="#91908e"/><rect x="45.5" y="14.55" width="27.28" height="48.35" fill="#c4c3c0"/><text transform="translate(51.07 28.86)" font-size="11.49" fill="#262b31" font-family="MagistralCond-Medium, Magistral Cond" font-weight="500" letter-spacing="0.03em">C<tspan x="6.54" y="0" letter-spacing="0.02em">V</tspan></text><path d="M54.45,54.42h7.67a3,3,0,0,1,3,3v5.91a0,0,0,0,1,0,0H51.45a0,0,0,0,1,0,0V57.42A3,3,0,0,1,54.45,54.42Z" fill="#fff"/><path d="M48.07,67.47a3.2,3.2,0,0,0,1.25-2.23V44.39a2.61,2.61,0,0,0-2-2.43L20.09,36.75a5.06,5.06,0,0,0-2.78.65c-2.26,1-3.89,1.85-5.37,2.4s-2.7,1.07-2.7,2.3S36.85,71.3,36.85,71.3a7.68,7.68,0,0,0,2.5,1,5.61,5.61,0,0,0,2.78-.87C43.8,70.56,48.07,67.47,48.07,67.47Z" fill="#262b31"/><path d="M39.07,72.27,11.28,66.9a2.61,2.61,0,0,1-2-2.44V42.1a1.64,1.64,0,0,1,2-1.65l27.79,5.37a2.59,2.59,0,0,1,2,2.43V70.62A1.64,1.64,0,0,1,39.07,72.27Z" fill="#91908e"/><path d="M27.58,49.47a4.64,4.64,0,0,0-5-2.11l3.29,5.12L21.52,56.4l-3.29-5.12a6.81,6.81,0,0,0,.38,6.22,4.61,4.61,0,0,0,4.86,2.13l4,6.26L32,61.83l-4-6.26A6.77,6.77,0,0,0,27.58,49.47Z" fill="#262b31"/><g clip-path="url(#a)"><path d="M13,38.05s26.63,5,28.6,5.44c1.25.29,3.83.79,3.83,4.15V65.82c0,1.74.2,4.46-1.43,5.69" fill="none" stroke-linecap="round" stroke-miterlimit="10" stroke-width="1.19" stroke="url(#b)"/></g><path d="M37.7,41.2a2,2,0,0,1-.24,1.55,3.14,3.14,0,0,1-2.62,1.08c-1-.12-9.9-1.79-10.67-2a2.58,2.58,0,0,1-1.55-2,10.77,10.77,0,0,1,0-1.49Z" fill="#262b31"/><polyline points="24.71 39.8 24.71 34.21 35.58 35.97 35.58 41.75" fill="none" stroke="#b3b3b3" stroke-linecap="round" stroke-linejoin="round" stroke-width="2.38"/></svg>