<svg width="144" height="144" viewBox="0 0 144 144" version="1.1" xmlns="http://www.w3.org/2000/svg"><g id="WTW-unit" stroke="none" stroke-width="1" fill="none" fill-rule="evenodd"><g id="Iconen-KTI_WtW-installatie" transform="translate(32 23)"><path id="Path" stroke="#222221" stroke-width="2" stroke-linejoin="round" fill-rule="nonzero" d="M47.63 10.6l-19.13-.555"/><path id="Path-Copy" stroke="#222221" stroke-width="2" stroke-linejoin="round" fill-rule="nonzero" d="M8 23l-7 7.723"/><path id="Path" stroke="#222221" stroke-width="1.95" stroke-linejoin="round" fill-rule="nonzero" d="M25.21 95.67V36.6l22.42-26 27.92-.15v16"/><path id="Path" stroke="#222221" stroke-width="2" stroke-linejoin="round" fill-rule="nonzero" d="M25.21 95.67L.52 84.94V31.09l24.69 5.51z"/><path d="M18.08 1.29l12.12 10.1c3.4 3 .61 9.79-2.83 13.23-3.93 3.93-9.75 6.86-12.66 4.28L2.59 18.8" id="Path" stroke="#222221" stroke-width="2" fill-rule="nonzero"/><path d="M2.59 18.8c-3.41-3 1.27-9.28 3.85-12.2s8.72-7.89 11.64-5.31c3.4 3-1.28 9.28-3.86 12.2S5.5 21.38 2.59 18.8" id="Path" stroke="#222221" stroke-width="2"/><path id="Path" stroke="#222221" stroke-width="2.08" stroke-linejoin="round" d="M49.25 25.59l17.16-2.18 8.43 2.22-17.47 2.18-9.05 15.775 9.7 20.175-8.42-2.21-9.7-20.46z"/><path d="M48.32 43.31l9.36-15.5 17.16-2.18 7.1 15.43s-6.76 18.2-7.28 18.72c-.52.52-16.64 4-16.64 4l-9.7-20.47z" id="Path" stroke="#222221" stroke-width="2.08" stroke-linejoin="round" fill-rule="nonzero"/><path d="M63.53 27.09a155.38 155.38 0 012.29 15.53c.7 7.8-1.38 19.76-1.38 19.76L69.29 61a90.79 90.79 0 001.21-18.55 92.61 92.61 0 00-2.31-16l-4.66.64z" id="Path" stroke="#222221" stroke-width="2.03" stroke-linejoin="round" fill-rule="nonzero"/><path id="Path" stroke="#222221" stroke-width="2.08" stroke-linecap="round" stroke-linejoin="round" d="M49.25 25.59l8.43 2.22"/><path id="Path-2" stroke="#000" stroke-width="2" stroke-linecap="round" d="M25.21 95.67l50-12.257V59.271"/></g></g></svg>