<svg width="144" height="144" viewBox="0 0 144 144" version="1.1" xmlns="http://www.w3.org/2000/svg"><g id="Zonnepanelen" stroke="none" stroke-width="1" fill="none" fill-rule="evenodd" stroke-linejoin="round"><g id="Iconen-KTI_Zonnepanelen" transform="translate(27 26)" stroke="#222221" stroke-width="2"><path id="Rectangle" fill-rule="nonzero" transform="rotate(30.54 62.658 48.808)" d="M57.173 2.918h10.97v91.78h-10.97z"/><path id="Path" fill-rule="nonzero" d="M34.63 85.54L14.2 57.02l37.76-54.9 29.3 4.37zM11.68 52.29L.57 38.4 30.34.13l16.3 1.33z"/><path id="Path" d="M63.25 58.8L90.2 87.92h-9.08l-23.4-19.81z"/><path id="Path" fill="#FFF" fill-rule="nonzero" d="M27.09 74.59L69.9 5.34m-25.57 8.42L72 22m-35.65 2.4l25.94 12.97m-33.25-.33l23.23 16.78m-30.85-6.3L43.33 69.3M24.71 7.11l14.3 4.66m-19.95 1.99L32 22m-19.26.74l11.86 9.95M6.42 30.72l11.89 12.87m1.22 20.3L60.46 4.08M5.84 45.44L38.01.79"/></g></g></svg>