<svg xmlns="http://www.w3.org/2000/svg" viewBox="0 0 85.04 85.04"><circle cx="41.48" cy="41.29" r="16.29" fill="none" stroke="#000" stroke-miterlimit="10" stroke-width="1.5"/><path d="M53.07,41.29A11.73,11.73,0,0,1,41.34,53c-15.55-.62-15.55-22.84,0-23.46A11.73,11.73,0,0,1,53.07,41.29Z" fill="none" stroke="#000" stroke-miterlimit="10" stroke-width="1.08" stroke-dasharray="3.07 3.07"/><path d="M29.08,23.58l-7.45-7.44a3,3,0,0,0-4.24,0l-.46.46a3,3,0,0,0,0,4.24l7.44,7.44A22.1,22.1,0,0,1,29.08,23.58Z" fill="none" stroke="#000" stroke-miterlimit="10" stroke-width="1.5"/><path d="M59.8,54.31A22,22,0,0,1,55.1,59l7.44,7.44a3,3,0,0,0,4.24,0l.46-.46a3,3,0,0,0,0-4.24Z" fill="none" stroke="#000" stroke-miterlimit="10" stroke-width="1.5"/><path d="M59.8,28.28l7.44-7.44a3,3,0,0,0,0-4.24l-.46-.46a3,3,0,0,0-4.24,0L55.1,23.58A22,22,0,0,1,59.8,28.28Z" fill="none" stroke="#000" stroke-miterlimit="10" stroke-width="1.5"/><path d="M24.37,54.31l-7.44,7.44a3,3,0,0,0,0,4.24l.46.46a3,3,0,0,0,4.24,0L29.08,59A22.1,22.1,0,0,1,24.37,54.31Z" fill="none" stroke="#000" stroke-miterlimit="10" stroke-width="1.5"/></svg>