<svg xmlns="http://www.w3.org/2000/svg" viewBox="0 0 85.04 85.04"><path d="M12.1,18.14v17.3a4.32,4.32,0,0,0,4.32,4.32H52.89l-5.2-11.14a4.34,4.34,0,0,1,0-3.66l5.2-11.14H16.42A4.32,4.32,0,0,0,12.1,18.14Z" fill="none" stroke="#000" stroke-miterlimit="10" stroke-width="1.5" fill-rule="evenodd"/><path d="M12.1,48.82V66.11a4.33,4.33,0,0,0,4.32,4.33H74.66L69.45,59.29a4.34,4.34,0,0,1,0-3.66l5.21-11.14H16.42A4.33,4.33,0,0,0,12.1,48.82Z" fill="none" stroke="#000" stroke-miterlimit="10" stroke-width="1.5" fill-rule="evenodd"/><path d="M27.35,20.49a2.1,2.1,0,0,1,2.17-1.77,2.14,2.14,0,0,1,2.18,1.77L36,34H33.92l-1.27-4.12H26.4L25.13,34H23Zm-.5,7.74H32.2L30,21.33c-.13-.43-.26-.73-.52-.73s-.38.3-.51.73Z"/><path d="M34.82,60.73c0,2.23-.61,4.1-3.28,4.1H26.78c-1.34,0-2.12-.52-2.12-2.07V51.83c0-1.55.78-2.09,2.12-2.09h4.61c2.29,0,3.23,1.49,3.23,4.12,0,1.66-.43,3-2.07,3.27v.09C34.19,57.44,34.82,58.51,34.82,60.73ZM26.67,56.4h3.81c1.69,0,2.05-.75,2.05-2.56,0-1.47-.36-2.46-1.9-2.46h-3c-.76,0-1,.21-1,1Zm0,5.82c0,.76.21,1,1,1h2.91c1.68,0,2.18-.75,2.18-2.54,0-1.55-.39-2.61-2-2.61h-4Z"/></svg>