<svg xmlns="http://www.w3.org/2000/svg" xmlns:xlink="http://www.w3.org/1999/xlink" viewBox="0 0 85.04 85.04"><defs><radialGradient id="a" cx="27.83" cy="27.14" r="1.76" gradientUnits="userSpaceOnUse"><stop offset="0" stop-color="#f9a60d"/><stop offset="0.7" stop-color="#f75110"/></radialGradient><radialGradient id="b" cx="27.83" cy="32.55" r="1.76" xlink:href="#a"/><radialGradient id="c" cx="50.15" cy="38.75" r="5.93" xlink:href="#a"/></defs><rect x="17.08" y="18.58" width="49.83" height="31.24" rx="3" fill="#262b31"/><path d="M70.94,66.72H13c-1.23,0-2.23-.47-2.23-1l6.27-14.82c0-.57.8-1,1.78-1H65.12c1,0,1.78.46,1.78,1l6.27,14.82C73.17,66.25,72.17,66.72,70.94,66.72Z" fill="#aaa8a5"/><path d="M60.82,59.9H23.16c-.8,0-1.45-.2-1.45-.45l2.55-7.36c0-.26.57-.47,1.27-.47H58.45c.7,0,1.27.21,1.27.47l2.56,7.36C62.28,59.7,61.62,59.9,60.82,59.9Z" fill="#262b31"/><rect x="20.49" y="22.52" width="43.01" height="23.38" fill="#fff"/><rect x="27.83" y="26.41" width="9.79" height="1.56" fill="#262b31"/><rect x="27.83" y="31.96" width="9.79" height="1.56" fill="#262b31"/><circle cx="27.83" cy="27.14" r="1.76" fill="url(#a)"/><circle cx="27.83" cy="32.55" r="1.76" fill="url(#b)"/><rect x="42.24" y="35.98" width="15.82" height="5.54" fill="url(#c)"/></svg>