<?xml version="1.0" encoding="UTF-8"?>
<svg width="144px" height="144px" viewBox="0 0 144 144" version="1.1" xmlns="http://www.w3.org/2000/svg" xmlns:xlink="http://www.w3.org/1999/xlink">
    <!-- Generator: Sketch 62 (91390) - https://sketch.com -->
    <title>Zonnepanelen</title>
    <desc>Created with Sketch.</desc>
    <g id="Zonnepanelen" stroke="none" stroke-width="1" fill="none" fill-rule="evenodd" stroke-linejoin="round">
        <g id="Iconen-KTI_Zonnepanelen" transform="translate(27.000000, 26.000000)" stroke="#222221" stroke-width="2">
            <rect id="Rectangle" fill-rule="nonzero" transform="translate(62.658326, 48.808018) rotate(30.540000) translate(-62.658326, -48.808018) " x="57.1733255" y="2.91801755" width="10.97" height="91.78"></rect>
            <polygon id="Path" fill-rule="nonzero" points="34.63 85.54 14.2 57.02 51.96 2.12 81.26 6.49"></polygon>
            <polygon id="Path" fill-rule="nonzero" points="11.68 52.29 0.57 38.4 30.34 0.13 46.64 1.46"></polygon>
            <polygon id="Path" points="63.25 58.8 90.2 87.92 81.12 87.92 57.72 68.11"></polygon>
            <line x1="27.09" y1="74.59" x2="69.9" y2="5.34" id="Path" fill="#FFFFFF" fill-rule="nonzero"></line>
            <line x1="44.33" y1="13.76" x2="72" y2="22" id="Path" fill="#FFFFFF" fill-rule="nonzero"></line>
            <line x1="36.35" y1="24.4" x2="62.29" y2="37.37" id="Path" fill="#FFFFFF" fill-rule="nonzero"></line>
            <line x1="29.04" y1="37.04" x2="52.27" y2="53.82" id="Path" fill="#FFFFFF" fill-rule="nonzero"></line>
            <line x1="21.42" y1="47.52" x2="43.33" y2="69.3" id="Path" fill="#FFFFFF" fill-rule="nonzero"></line>
            <line x1="24.71" y1="7.11" x2="39.01" y2="11.77" id="Path" fill="#FFFFFF" fill-rule="nonzero"></line>
            <line x1="19.06" y1="13.76" x2="32" y2="22" id="Path" fill="#FFFFFF" fill-rule="nonzero"></line>
            <line x1="12.74" y1="22.74" x2="24.6" y2="32.69" id="Path" fill="#FFFFFF" fill-rule="nonzero"></line>
            <line x1="6.42" y1="30.72" x2="18.31" y2="43.59" id="Path" fill="#FFFFFF" fill-rule="nonzero"></line>
            <line x1="19.53" y1="63.89" x2="60.46" y2="4.08" id="Path" fill="#FFFFFF" fill-rule="nonzero"></line>
            <line x1="5.84" y1="45.44" x2="38.01" y2="0.79" id="Path" fill="#FFFFFF" fill-rule="nonzero"></line>
        </g>
    </g>
</svg>