<?xml version="1.0" standalone="no"?>
<!DOCTYPE svg PUBLIC "-//W3C//DTD SVG 20010904//EN"
 "http://www.w3.org/TR/2001/REC-SVG-20010904/DTD/svg10.dtd">
<svg version="1.0" xmlns="http://www.w3.org/2000/svg"
 width="162.000000pt" height="162.000000pt" viewBox="0 0 162.000000 162.000000"
 preserveAspectRatio="xMidYMid meet">
<metadata>
Created by potrace 1.11, written by Peter Selinger 2001-2013
</metadata>
<g transform="translate(0.000000,162.000000) scale(0.100000,-0.100000)"
fill="#000000" stroke="none">
<path d="M0 950 l0 -420 810 0 810 0 0 420 0 420 -810 0 -810 0 0 -420z"/>
<path d="M0 335 c0 -50 4 -85 10 -85 6 0 10 35 10 85 0 50 -4 85 -10 85 -6 0
-10 -35 -10 -85z"/>
<path d="M274 403 c2 -10 -1 -21 -7 -24 -5 -4 -6 -12 -1 -20 5 -8 9 -30 10
-50 1 -42 10 -59 30 -59 17 0 19 17 2 22 -17 6 -18 88 -1 88 18 0 16 17 -3 24
-9 4 -14 13 -10 21 3 9 0 15 -8 15 -8 0 -13 -8 -12 -17z"/>
<path d="M440 335 c0 -50 4 -85 10 -85 6 0 10 35 10 85 0 50 -4 85 -10 85 -6
0 -10 -35 -10 -85z"/>
<path d="M490 335 c0 -50 4 -85 10 -85 6 0 10 35 10 85 0 50 -4 85 -10 85 -6
0 -10 -35 -10 -85z"/>
<path d="M654 411 c4 -7 2 -18 -4 -26 -7 -8 -8 -20 -4 -27 5 -7 9 -29 10 -49
1 -42 10 -59 30 -59 17 0 19 17 3 22 -6 2 -13 23 -15 46 -2 31 1 42 12 42 19
0 18 16 -1 24 -8 3 -14 11 -13 17 2 6 -3 14 -11 17 -9 3 -11 0 -7 -7z"/>
<path d="M710 410 c0 -5 5 -10 10 -10 6 0 10 5 10 10 0 6 -4 10 -10 10 -5 0
-10 -4 -10 -10z"/>
<path d="M874 403 c2 -10 -2 -21 -7 -25 -8 -4 -7 -11 0 -20 6 -7 10 -26 8 -43
-2 -37 11 -65 30 -65 18 0 20 17 3 22 -17 6 -18 88 -1 88 7 0 13 5 13 10 0 6
-6 10 -14 10 -8 0 -13 7 -12 16 0 9 -4 19 -11 21 -6 2 -10 -4 -9 -14z"/>
<path d="M1140 335 c0 -50 4 -85 10 -85 6 0 10 24 10 54 0 37 4 56 14 59 23 9
36 -15 36 -65 0 -26 5 -48 10 -48 14 0 12 104 -2 118 -7 7 -22 12 -35 12 -16
0 -23 6 -23 20 0 11 -4 20 -10 20 -6 0 -10 -35 -10 -85z"/>
<path d="M1380 410 c0 -5 5 -10 10 -10 6 0 10 5 10 10 0 6 -4 10 -10 10 -5 0
-10 -4 -10 -10z"/>
<path d="M1530 335 c0 -50 4 -85 10 -85 6 0 10 35 10 85 0 50 -4 85 -10 85 -6
0 -10 -35 -10 -85z"/>
<path d="M710 315 c0 -37 4 -65 10 -65 6 0 10 28 10 65 0 37 -4 65 -10 65 -6
0 -10 -28 -10 -65z"/>
<path d="M1380 315 c0 -37 4 -65 10 -65 6 0 10 28 10 65 0 37 -4 65 -10 65 -6
0 -10 -28 -10 -65z"/>
<path d="M1574 348 c-15 -30 -15 -34 1 -65 10 -18 24 -33 32 -33 11 0 9 8 -8
31 -19 27 -20 34 -8 57 7 15 15 30 17 35 2 4 -1 7 -7 7 -6 0 -18 -14 -27 -32z"/>
<path d="M57 363 c-11 -10 -8 -113 3 -113 6 0 10 22 10 49 0 48 10 63 38 54 7
-3 12 -23 12 -54 0 -27 5 -49 10 -49 14 0 12 94 -2 108 -13 13 -60 16 -71 5z"/>
<path d="M155 360 c-12 -19 5 -48 35 -60 17 -7 30 -16 30 -21 0 -9 -4 -10 -39
-13 -39 -2 -33 -16 8 -16 29 0 43 5 48 17 6 16 -7 30 -53 60 -16 10 -17 14 -5
22 8 5 23 8 33 6 10 -2 18 0 18 6 0 12 -67 12 -75 -1z"/>
<path d="M345 359 c4 -6 13 -8 19 -6 18 7 40 -9 32 -22 -4 -6 -18 -11 -31 -11
-29 0 -39 -14 -31 -46 5 -20 12 -24 46 -24 l40 0 0 44 c0 65 -7 76 -47 76 -22
0 -32 -4 -28 -11z m55 -68 c0 -21 -21 -33 -39 -22 -17 11 -2 41 20 41 12 0 19
-7 19 -19z"/>
<path d="M540 361 c0 -4 8 -8 18 -8 34 0 42 -3 42 -17 0 -8 -8 -13 -17 -11
-32 5 -54 -14 -51 -43 3 -24 8 -27 46 -30 l42 -3 0 45 c0 65 -7 76 -46 76 -19
0 -34 -4 -34 -9z m58 -73 c-3 -22 -33 -34 -44 -17 -10 17 5 39 26 39 16 0 21
-5 18 -22z"/>
<path d="M762 358 c-7 -7 -12 -28 -12 -48 0 -20 5 -41 12 -48 15 -15 82 -16
73 -2 -4 6 -15 8 -24 5 -19 -6 -49 20 -37 32 4 4 19 7 34 8 30 0 41 27 22 50
-15 18 -52 19 -68 3z m58 -24 c0 -8 -10 -14 -25 -14 -26 0 -35 25 -12 33 18 6
37 -3 37 -19z"/>
<path d="M942 358 c-7 -7 -12 -28 -12 -48 0 -20 5 -41 12 -48 15 -15 82 -16
73 -1 -4 6 -13 8 -20 5 -17 -6 -53 20 -42 31 5 4 21 8 35 8 30 0 41 27 22 50
-15 18 -52 19 -68 3z m58 -24 c0 -8 -10 -14 -25 -14 -26 0 -35 25 -12 33 18 6
37 -3 37 -19z"/>
<path d="M1050 351 c-25 -48 -4 -101 40 -101 17 0 30 5 30 11 0 6 -6 9 -12 6
-24 -8 -48 13 -48 43 0 26 22 51 42 47 3 -1 10 1 14 6 4 4 -7 7 -24 7 -21 0
-35 -7 -42 -19z"/>
<path d="M1267 363 c-11 -10 -8 -113 3 -113 6 0 10 22 10 48 0 55 4 62 31 55
15 -4 19 -14 19 -54 0 -27 5 -49 10 -49 14 0 12 94 -2 108 -13 13 -60 16 -71
5z"/>
<path d="M1432 358 c-15 -15 -16 -63 -2 -89 8 -13 21 -19 47 -19 20 0 33 3 29
8 -8 7 -13 9 -46 11 -22 1 -28 30 -7 32 6 1 21 2 32 3 23 1 32 31 15 51 -15
18 -52 19 -68 3z m58 -22 c0 -14 -34 -28 -44 -18 -15 14 -4 32 19 32 15 0 25
-6 25 -14z"/>
</g>
</svg>
